<?xml version="1.0" encoding="utf-8"?>
<!-- Generator: Adobe Illustrator 15.0.0, SVG Export Plug-In . SVG Version: 6.00 Build 0)  -->
<!DOCTYPE svg PUBLIC "-//W3C//DTD SVG 1.1//EN" "http://www.w3.org/Graphics/SVG/1.1/DTD/svg11.dtd">
<svg version="1.1" id="Шар_1" xmlns="http://www.w3.org/2000/svg" xmlns:xlink="http://www.w3.org/1999/xlink" x="0px" y="0px"
	 width="200px" height="67.76px" viewBox="0 0 200 67.76" enable-background="new 0 0 200 67.76" xml:space="preserve">
<g>
	<path fill="#FFFFFF" d="M119.304,10.323h-7.01c0.067,1.366,0.392,2.38,0.975,3.043c0.581,0.663,1.348,0.994,2.299,0.994
		c0.549,0,1.034-0.083,1.456-0.251c0.423-0.167,0.881-0.432,1.375-0.793l0.544,0.743c-0.523,0.429-1.059,0.75-1.607,0.964
		c-0.549,0.214-1.159,0.321-1.829,0.321c-1.392,0-2.484-0.475-3.274-1.425s-1.184-2.27-1.184-3.957c0-1.111,0.169-2.085,0.511-2.922
		c0.342-0.837,0.831-1.486,1.467-1.949c0.635-0.461,1.376-0.692,2.219-0.692c1.338,0,2.356,0.452,3.053,1.356
		c0.696,0.904,1.043,2.146,1.043,3.725C119.343,9.774,119.331,10.055,119.304,10.323z M118.199,9.118
		c0-1.178-0.244-2.099-0.733-2.761c-0.489-0.664-1.214-0.995-2.18-0.995c-0.856,0-1.556,0.334-2.099,1.004
		c-0.542,0.669-0.846,1.687-0.913,3.053h5.924V9.118z"/>
	<path fill="#FFFFFF" d="M124.003,14.039h5.745l-0.161,1.084h-6.789V1.366h1.205V14.039z"/>
	<path fill="#FFFFFF" d="M139.689,10.323h-7.01c0.067,1.366,0.393,2.38,0.975,3.043c0.582,0.663,1.348,0.994,2.299,0.994
		c0.549,0,1.034-0.083,1.456-0.251c0.423-0.167,0.881-0.432,1.376-0.793l0.543,0.743c-0.522,0.429-1.059,0.75-1.607,0.964
		c-0.549,0.214-1.158,0.321-1.828,0.321c-1.393,0-2.484-0.475-3.274-1.425s-1.184-2.27-1.184-3.957c0-1.111,0.169-2.085,0.511-2.922
		c0.342-0.837,0.831-1.486,1.467-1.949c0.634-0.461,1.375-0.692,2.219-0.692c1.338,0,2.356,0.452,3.053,1.356
		c0.696,0.904,1.044,2.146,1.044,3.725C139.729,9.774,139.716,10.055,139.689,10.323z M138.584,9.118
		c0-1.178-0.244-2.099-0.733-2.761c-0.489-0.664-1.214-0.995-2.18-0.995c-0.856,0-1.557,0.334-2.099,1.004
		c-0.542,0.669-0.846,1.687-0.914,3.053h5.925V9.118z"/>
	<path fill="#FFFFFF" d="M149.82,13.979c0.142,0.241,0.366,0.422,0.675,0.542l-0.263,0.823c-0.481-0.107-0.853-0.294-1.113-0.562
		c-0.263-0.269-0.434-0.664-0.513-1.186c-0.764,1.165-1.855,1.747-3.274,1.747c-1.004,0-1.797-0.284-2.38-0.853
		c-0.582-0.569-0.873-1.329-0.873-2.279c0-1.085,0.384-1.921,1.154-2.511c0.771-0.589,1.838-0.884,3.204-0.884h2.008V7.793
		c0-0.844-0.188-1.457-0.563-1.838s-0.997-0.572-1.867-0.572c-0.804,0-1.754,0.201-2.852,0.603l-0.301-0.883
		c1.178-0.469,2.282-0.703,3.313-0.703c2.29,0,3.435,1.111,3.435,3.334v5.061C149.61,13.343,149.681,13.738,149.82,13.979z
		 M148.445,12.513V9.66h-1.827c-1.072,0-1.888,0.208-2.45,0.623c-0.563,0.416-0.843,1.038-0.843,1.868
		c0,0.723,0.193,1.278,0.582,1.667c0.388,0.389,0.931,0.583,1.627,0.583C146.818,14.4,147.789,13.771,148.445,12.513z"/>
	<path fill="#FFFFFF" d="M158.969,4.519l-0.22,1.105c-0.296-0.081-0.603-0.121-0.925-0.121c-0.723,0-1.302,0.261-1.737,0.783
		c-0.436,0.522-0.793,1.339-1.074,2.45v6.387h-1.164V4.62h1.003l0.101,2.35c0.282-0.87,0.666-1.517,1.154-1.938
		c0.489-0.422,1.096-0.632,1.818-0.632C158.34,4.398,158.688,4.438,158.969,4.519z"/>
	<path fill="#FFFFFF" d="M168.157,5.242c0.501,0.563,0.754,1.353,0.754,2.37v7.511h-1.166V7.772c0-0.843-0.168-1.459-0.502-1.848
		c-0.336-0.388-0.83-0.583-1.485-0.583c-0.67,0-1.262,0.185-1.777,0.552c-0.516,0.368-1.008,0.907-1.477,1.617v7.612h-1.165V4.62
		h1.004l0.101,1.787c0.951-1.339,2.129-2.008,3.534-2.008C166.93,4.398,167.655,4.68,168.157,5.242z"/>
	<path fill="#FFFFFF" d="M174.273,0.241c0.16,0.16,0.241,0.361,0.241,0.602c0,0.241-0.081,0.442-0.241,0.603
		c-0.162,0.161-0.375,0.241-0.645,0.241c-0.255,0-0.462-0.08-0.622-0.241c-0.159-0.161-0.241-0.361-0.241-0.603
		c0-0.241,0.082-0.442,0.241-0.602C173.167,0.081,173.374,0,173.629,0C173.898,0,174.111,0.081,174.273,0.241z M174.231,15.123
		h-1.163V4.62h1.163V15.123z"/>
	<path fill="#FFFFFF" d="M185.311,5.242c0.501,0.563,0.75,1.353,0.75,2.37v7.511h-1.162V7.772c0-0.843-0.168-1.459-0.505-1.848
		c-0.333-0.388-0.829-0.583-1.484-0.583c-0.67,0-1.261,0.185-1.776,0.552c-0.516,0.368-1.009,0.907-1.477,1.617v7.612h-1.166V4.62
		h1.003l0.102,1.787c0.952-1.339,2.129-2.008,3.535-2.008C184.08,4.398,184.806,4.68,185.311,5.242z"/>
	<path fill="#FFFFFF" d="M198.03,4.84c-0.642,0.174-1.61,0.274-2.911,0.301c1.191,0.563,1.788,1.513,1.788,2.852
		c0,1.032-0.342,1.865-1.025,2.5c-0.681,0.636-1.605,0.954-2.771,0.954c-0.521,0-0.978-0.066-1.364-0.201
		c-0.255,0.148-0.451,0.325-0.594,0.533c-0.141,0.208-0.211,0.432-0.211,0.673c0,0.723,0.556,1.084,1.668,1.084h1.706
		c1.031,0,1.852,0.251,2.46,0.753c0.61,0.502,0.916,1.148,0.916,1.938c0,0.964-0.384,1.707-1.146,2.229
		c-0.763,0.522-1.902,0.783-3.416,0.783c-1.566,0-2.687-0.238-3.362-0.713c-0.678-0.476-1.014-1.242-1.014-2.299h1.084
		c0.014,0.508,0.12,0.911,0.322,1.205c0.199,0.295,0.535,0.509,1.003,0.643c0.468,0.134,1.124,0.201,1.967,0.201
		c1.18,0,2.037-0.171,2.572-0.513c0.535-0.341,0.805-0.834,0.805-1.476c0-0.563-0.211-0.994-0.625-1.295
		c-0.415-0.301-0.998-0.452-1.746-0.452h-1.706c-0.832,0-1.471-0.174-1.919-0.522s-0.673-0.79-0.673-1.325
		c0-0.348,0.101-0.676,0.3-0.984c0.202-0.308,0.482-0.576,0.844-0.803c-0.603-0.308-1.048-0.704-1.334-1.186
		c-0.289-0.481-0.432-1.071-0.432-1.767c0-1.058,0.354-1.915,1.064-2.571c0.709-0.656,1.64-0.984,2.791-0.984
		c1.272,0.013,2.199-0.033,2.782-0.141c0.583-0.106,1.188-0.287,1.815-0.542L198.03,4.84z M191.093,6.025
		c-0.448,0.482-0.672,1.125-0.672,1.928c0,0.831,0.238,1.479,0.712,1.948c0.476,0.469,1.12,0.703,1.938,0.703
		c0.857,0,1.513-0.231,1.967-0.693c0.457-0.462,0.684-1.108,0.684-1.938c0-0.844-0.224-1.5-0.672-1.968
		c-0.448-0.469-1.11-0.704-1.979-0.704C192.2,5.302,191.541,5.543,191.093,6.025z"/>
	<path fill="#FFFFFF" d="M113.63,25.688c-0.301,0.281-0.453,0.73-0.453,1.346v1.688h2.771l-0.16,0.943h-2.611v9.56h-1.164v-9.56
		h-1.828v-0.943h1.828v-1.728c0-0.83,0.258-1.486,0.773-1.968c0.514-0.482,1.227-0.723,2.138-0.723c0.817,0,1.633,0.188,2.45,0.563
		l-0.401,0.863c-0.696-0.308-1.36-0.461-1.989-0.461C114.383,25.266,113.932,25.407,113.63,25.688z"/>
	<path fill="#FFFFFF" d="M125.019,29.936c0.783,0.958,1.174,2.293,1.174,4.006c0,1.701-0.398,3.043-1.195,4.027
		c-0.796,0.984-1.884,1.476-3.263,1.476c-1.393,0-2.481-0.485-3.264-1.456s-1.174-2.307-1.174-4.007
		c0-1.111,0.181-2.082,0.542-2.912c0.361-0.83,0.875-1.466,1.545-1.908c0.67-0.441,1.46-0.663,2.371-0.663
		C123.147,28.5,124.235,28.979,125.019,29.936z M119.384,30.628c-0.562,0.764-0.843,1.882-0.843,3.354
		c0,1.459,0.279,2.571,0.833,3.334c0.556,0.763,1.342,1.145,2.361,1.145c1.017,0,1.81-0.381,2.38-1.145
		c0.569-0.763,0.854-1.888,0.854-3.375c0-1.459-0.279-2.567-0.833-3.324c-0.557-0.756-1.349-1.135-2.38-1.135
		C120.737,29.483,119.947,29.865,119.384,30.628z"/>
	<path fill="#FFFFFF" d="M134.729,28.62l-0.22,1.105c-0.295-0.081-0.602-0.121-0.924-0.121c-0.723,0-1.302,0.261-1.737,0.783
		c-0.436,0.522-0.793,1.339-1.075,2.45v6.387h-1.164V28.721h1.003l0.101,2.35c0.282-0.87,0.666-1.517,1.154-1.938
		c0.489-0.422,1.096-0.632,1.818-0.632C134.1,28.5,134.448,28.539,134.729,28.62z"/>
	<path fill="#FFFFFF" d="M144.469,39.224h-1.004l-0.061-1.867c-0.831,1.393-1.975,2.088-3.434,2.088
		c-0.951,0-1.684-0.277-2.199-0.833c-0.516-0.555-0.773-1.349-0.773-2.38v-7.511h1.164v7.391c0,0.817,0.171,1.416,0.513,1.797
		s0.86,0.572,1.557,0.572c1.219,0,2.243-0.716,3.072-2.149v-7.611h1.166V39.224z"/>
	<path fill="#FFFFFF" d="M160.967,29.363c0.489,0.576,0.734,1.359,0.734,2.35v7.511h-1.166v-7.351c0-0.83-0.157-1.442-0.472-1.837
		s-0.753-0.593-1.315-0.593c-0.589,0-1.118,0.188-1.586,0.563c-0.47,0.375-0.925,0.911-1.366,1.606v7.612h-1.166v-7.351
		c0-0.83-0.156-1.442-0.471-1.837s-0.753-0.593-1.316-0.593c-0.603,0-1.138,0.188-1.605,0.563c-0.47,0.375-0.918,0.911-1.347,1.606
		v7.612h-1.164V28.721h1.003l0.102,1.767c0.414-0.616,0.894-1.101,1.436-1.456c0.542-0.354,1.142-0.532,1.797-0.532
		c0.67,0,1.229,0.181,1.678,0.542s0.753,0.877,0.914,1.547c0.924-1.393,2.027-2.089,3.313-2.089
		C159.813,28.5,160.478,28.787,160.967,29.363z"/>
	<path fill="#FFFFFF" d="M113.098,48.442c0.16,0.161,0.241,0.362,0.241,0.602c0,0.241-0.081,0.442-0.241,0.603
		c-0.161,0.161-0.375,0.241-0.643,0.241c-0.255,0-0.462-0.08-0.622-0.241c-0.161-0.16-0.241-0.361-0.241-0.603
		c0-0.24,0.08-0.441,0.241-0.602c0.16-0.16,0.367-0.241,0.622-0.241C112.723,48.202,112.937,48.282,113.098,48.442z M113.057,63.326
		h-1.164V52.821h1.164V63.326z"/>
	<path fill="#FFFFFF" d="M124.135,53.443c0.501,0.563,0.752,1.353,0.752,2.371v7.512h-1.164v-7.353c0-0.844-0.168-1.458-0.503-1.847
		s-0.83-0.582-1.485-0.582c-0.67,0-1.262,0.184-1.778,0.552s-1.007,0.907-1.477,1.616v7.613h-1.164V52.821h1.003l0.101,1.787
		c0.951-1.339,2.129-2.008,3.535-2.008C122.906,52.6,123.632,52.881,124.135,53.443z"/>
	<path fill="#FFFFFF" d="M143.585,59.027c0,1.365-0.388,2.46-1.164,3.284c-0.777,0.824-1.896,1.234-3.354,1.234
		c-1.474,0-2.595-0.408-3.365-1.226c-0.769-0.815-1.154-1.914-1.154-3.293v-9.459h1.205v9.358c0,1.151,0.272,2.036,0.814,2.65
		c0.542,0.617,1.376,0.925,2.501,0.925c1.124,0,1.954-0.311,2.489-0.935c0.535-0.623,0.804-1.503,0.804-2.641v-9.358h1.224V59.027z"
		/>
	<path fill="#FFFFFF" d="M148.907,63.326h-1.164V48.542l1.164-0.14V63.326z M150.374,57.52l4.88,5.806h-1.405l-4.82-5.744
		l4.418-4.761h1.347L150.374,57.52z"/>
	<path fill="#FFFFFF" d="M162.665,52.72l-0.221,1.104c-0.295-0.08-0.603-0.12-0.924-0.12c-0.724,0-1.302,0.261-1.737,0.783
		c-0.437,0.521-0.793,1.34-1.075,2.449v6.389h-1.164V52.821h1.003l0.102,2.35c0.281-0.87,0.665-1.517,1.154-1.938
		c0.488-0.421,1.096-0.632,1.818-0.632C162.035,52.6,162.385,52.64,162.665,52.72z"/>
	<path fill="#FFFFFF" d="M171.371,62.179c0.14,0.241,0.364,0.423,0.672,0.544l-0.261,0.822c-0.481-0.108-0.854-0.294-1.115-0.562
		c-0.26-0.27-0.431-0.664-0.513-1.186c-0.762,1.166-1.854,1.747-3.272,1.747c-1.005,0-1.798-0.284-2.381-0.854
		c-0.581-0.568-0.872-1.328-0.872-2.279c0-1.086,0.384-1.921,1.154-2.511s1.838-0.884,3.203-0.884h2.009v-1.023
		c0-0.845-0.188-1.457-0.563-1.839c-0.375-0.381-0.997-0.572-1.866-0.572c-0.805,0-1.754,0.201-2.853,0.603l-0.302-0.883
		c1.179-0.469,2.282-0.703,3.314-0.703c2.289,0,3.435,1.111,3.435,3.334v5.061C171.16,61.543,171.23,61.938,171.371,62.179z
		 M169.995,60.714v-2.853h-1.827c-1.073,0-1.889,0.207-2.451,0.622c-0.563,0.416-0.843,1.039-0.843,1.869
		c0,0.723,0.193,1.277,0.581,1.667c0.389,0.388,0.932,0.582,1.629,0.582C168.367,62.602,169.34,61.972,169.995,60.714z"/>
	<path fill="#FFFFFF" d="M176.602,48.442c0.16,0.161,0.241,0.362,0.241,0.602c0,0.241-0.081,0.442-0.241,0.603
		c-0.159,0.161-0.375,0.241-0.642,0.241c-0.255,0-0.462-0.08-0.622-0.241c-0.162-0.16-0.24-0.361-0.24-0.603
		c0-0.24,0.078-0.441,0.24-0.602c0.16-0.16,0.367-0.241,0.622-0.241C176.227,48.202,176.442,48.282,176.602,48.442z M176.563,63.326
		h-1.165V52.821h1.165V63.326z"/>
	<path fill="#FFFFFF" d="M187.639,53.443c0.501,0.563,0.754,1.353,0.754,2.371v7.512h-1.166v-7.353c0-0.844-0.168-1.458-0.502-1.847
		c-0.336-0.389-0.829-0.582-1.484-0.582c-0.67,0-1.264,0.184-1.779,0.552s-1.006,0.907-1.477,1.616v7.613h-1.163V52.821h1.003
		l0.102,1.787c0.949-1.339,2.129-2.008,3.533-2.008C186.411,52.6,187.137,52.881,187.639,53.443z"/>
	<path fill="#FFFFFF" d="M199.961,58.524h-7.01c0.067,1.366,0.392,2.381,0.975,3.043c0.58,0.663,1.348,0.993,2.298,0.993
		c0.549,0,1.033-0.082,1.457-0.249c0.423-0.168,0.88-0.432,1.375-0.793l0.544,0.742c-0.523,0.429-1.059,0.75-1.608,0.964
		c-0.549,0.213-1.157,0.321-1.826,0.321c-1.393,0-2.485-0.475-3.275-1.425c-0.791-0.951-1.183-2.27-1.183-3.958
		c0-1.11,0.168-2.086,0.51-2.921c0.342-0.838,0.832-1.487,1.468-1.949c0.634-0.462,1.376-0.692,2.22-0.692
		c1.336,0,2.356,0.451,3.051,1.355c0.698,0.904,1.045,2.146,1.045,3.726C200,57.976,199.986,58.256,199.961,58.524z M198.854,57.32
		c0-1.179-0.244-2.099-0.731-2.762c-0.49-0.663-1.216-0.994-2.18-0.994c-0.857,0-1.558,0.334-2.099,1.004
		c-0.544,0.67-0.847,1.687-0.913,3.053h5.923V57.32z"/>
</g>
<g>
	<path fill="#00FF5A" d="M73.021,31.179L58.112,5.357C56.83,3.138,54.462,1.771,51.9,1.771H22.083c-2.563,0-4.93,1.367-6.212,3.586
		L0.962,31.179c-1.282,2.219-1.282,4.954,0,7.173l14.909,25.822c1.282,2.219,3.649,3.586,6.212,3.586H51.9
		c2.563,0,4.93-1.367,6.212-3.586l0.622-1.079c-6.926-0.562-12.479-6.682-12.479-14.145c0-1.895,1.55-3.442,3.442-3.442
		s3.442,1.548,3.442,3.442c0,1.979,0.776,3.873,2.066,5.249c1.207,1.379,2.84,2.066,4.563,2.066c1.292,0,2.529-0.432,3.604-1.205
		l9.647-16.709C74.302,36.133,74.302,33.398,73.021,31.179z M36.959,59.795c-2.497,2.151-5.853,3.356-9.468,3.356
		c-7.402,0-13.513-6.369-13.513-14.201V35.696c0.345,0.258,0.688,0.603,1.032,0.773c0.688,0.432,1.548,0.603,2.41,0.603
		c1.377,0,2.582-0.516,3.442-1.376c0.344-0.344,0.602-0.689,0.861-1.121c0.259,0.604,0.688,1.206,1.205,1.723
		c1.206,1.291,2.839,2.065,4.563,2.065c1.721,0,3.357-0.774,4.647-2.065c0.517-0.517,0.862-1.119,1.205-1.723
		c0.861,1.549,2.411,2.497,4.304,2.497c0.861,0,1.635-0.171,2.41-0.603c-2.066,5.164-6.886,8.78-12.565,8.78
		c-2.411,0-4.648-0.688-6.629-1.807v5.509c0,1.979,0.689,3.873,2.066,5.249c1.206,1.292,2.839,2.066,4.563,2.066
		c1.979,0,3.7-0.603,4.906-1.635c1.205-1.034,1.807-2.497,1.807-4.304c0-1.895,1.549-3.444,3.442-3.444
		c1.893,0,3.442,1.549,3.442,3.444C41.089,54.114,39.626,57.471,36.959,59.795z M41.089,32.166c0,0.432-0.085,0.776-0.171,1.12
		c-0.432,1.377-1.807,2.324-3.271,2.324c-1.893,0-3.442-1.549-3.442-3.443c0-0.171,0-0.345-0.087-0.516
		c-0.087-1.807-0.774-3.443-1.979-4.733c-1.29-1.291-2.926-2.066-4.647-2.066c-1.723,0-3.356,0.776-4.563,2.066
		c-1.205,1.29-1.893,2.926-2.066,4.733v0.516c0,1.894-1.55,3.443-3.442,3.443c-1.548,0-2.84-0.947-3.271-2.324
		c-0.085-0.343-0.171-0.688-0.171-1.12V31.65c0-0.602,0.085-1.119,0.171-1.722c1.034-6.713,6.628-11.962,13.342-11.962
		c6.799,0,12.393,5.249,13.427,11.962c0.085,0.603,0.085,1.12,0.171,1.722V32.166z M53.14,45.421
		c-0.86-0.86-2.065-1.377-3.442-1.377c-1.291,0-2.582,0.517-3.442,1.377V6.517c0-1.894,1.55-3.443,3.442-3.443
		s3.442,1.549,3.442,3.443V45.421z"/>
	<path fill="#00FF5A" d="M98.069,12.8c-1.464,1.205-3.614,1.033-4.821-0.43c-1.29-1.636-3.097-2.496-4.99-2.496
		c-1.724,0-3.357,0.689-4.563,2.065c-1.291,1.378-2.066,3.272-2.066,5.25c0,1.894-1.549,3.444-3.442,3.444
		c-1.893,0-3.442-1.55-3.442-3.444c0-7.831,6.111-14.201,13.514-14.201c4.044,0,7.744,1.809,10.328,4.992
		C99.791,9.444,99.619,11.596,98.069,12.8z M88.259,29.67c1.893,0,3.442,1.548,3.442,3.442c0,1.981-1.549,3.443-3.442,3.443h-6.629
		v23.152c0,1.894-1.549,3.443-3.442,3.443c-1.893,0-3.442-1.55-3.442-3.443V20.72c0.947,0.86,2.152,1.376,3.442,1.376
		c1.377,0,2.582-0.516,3.442-1.462v9.037H88.259z"/>
</g>
</svg>
